<?xml version="1.0" encoding="UTF-8"?>
<svg id="Layer_2" data-name="Layer 2" xmlns="http://www.w3.org/2000/svg" viewBox="0 0 310 135.27">
  <defs>
    <style>
      .cls-1 {
        fill: #fff;
      }
    </style>
  </defs>
  <g id="Layer_1-2" data-name="Layer 1">
    <path class="cls-1" d="M99.09,67.12h0v-.24l-23.27-15.6,23.27-15.84c.24,0,.48-.48.48-.96s0-.72-.48-.96L50.39.18c-.48-.24-.96-.24-1.44,0L.24,33.53l-.24.24h0v.48h0v66.7c0,.48,0,.72.48.96l48.71,33.35h.96l48.71-33.35c.24,0,.48-.48.48-.96v-33.35h0v-.48h-.24ZM26.15,51.77l23.03-15.6,22.07,15.12-22.79,15.6h0v31.19l-21.83-14.88v-31.91l-.48.48ZM71.26,84.16l-20.87,14.16v-28.55l20.87,14.4ZM73.42,82.72l-22.07-15.12,22.07-15.12,22.55,15.12-22.31,15.12h-.24ZM49.19,2.34l46.79,31.91-22.55,15.36-23.51-16.08c-.48-.24-.96-.24-1.44,0l-23.51,16.08L2.4,34.25S49.19,2.34,49.19,2.34ZM1.68,36.65l22.31,15.12v32.39c0,.48,0,.72.48.96l23.75,16.08v30.71L1.92,100.23v-63.82l-.24.24ZM96.7,100.23l-46.31,31.67v-30.71l.96-.72,45.35-30.71v30.47Z"/>
    <g>
      <path class="cls-1" d="M138.92,80.08c1.2,2.16,3.36,3.84,6,3.84,3.84,0,6.72-3.12,6.72-7.2h0v-.24c-2.16,2.16-4.8,3.36-7.68,3.36-6.48,0-11.52-5.76-11.52-12.96s5.28-12.96,11.52-12.96,5.76,1.2,7.68,3.36h0v-2.64h6v22.31c0,6.96-5.28,12.72-12.48,12.72s-8.88-2.64-11.28-6.48l5.04-2.88v-.24ZM144.92,74.08c3.84,0,6.96-3.36,6.96-7.44s-3.12-7.44-6.96-7.44-6.96,3.36-6.96,7.44,3.12,7.44,6.96,7.44"/>
      <path class="cls-1" d="M178.51,71.68l4.08,4.08c-2.4,2.4-5.76,3.84-9.6,3.84-7.44,0-13.2-5.76-13.2-12.96s5.76-12.96,12.96-12.96,12.96,5.76,12.96,12.96,0,1.44,0,1.44h-19.67c0,2.64,3.36,6,6.96,6s4.08-.96,5.52-2.4M179.23,63.28h0c-1.44-2.64-3.6-4.08-6.48-4.08s-5.04,1.44-6.48,4.08h12.96Z"/>
      <path class="cls-1" d="M194.11,66.64v12.24h-6v-24.71h6v3.12h0c1.92-2.4,4.8-3.6,7.68-3.6,10.8,0,11.04,9.6,11.04,12.48v12.72h-6v-12.24c0-2.88,0-7.44-6.24-7.44-3.6,0-6.48,3.36-6.48,7.44"/>
      <path class="cls-1" d="M229.62,79.6c-3.12,0-5.76-1.2-7.92-3.36h0v12.48h-6v-34.31h6v2.64h0c2.16-1.92,4.8-3.36,7.92-3.36,6.48,0,11.52,5.76,11.52,12.96s-5.28,12.96-11.52,12.96M228.42,59.2c-3.84,0-6.96,3.36-6.96,7.44s3.12,7.44,6.96,7.44,6.96-3.36,6.96-7.44-3.12-7.44-6.96-7.44"/>
      <path class="cls-1" d="M255.05,53.69c2.88,0,5.76,1.2,7.68,3.36h0v-2.64h6v24.71h-6v-2.64h0c-2.16,1.92-4.8,3.12-7.68,3.12-6.48,0-11.52-5.76-11.52-12.96s5.28-12.96,11.52-12.96M256.25,74.08c3.84,0,6.96-3.36,6.96-7.44s-3.12-7.44-6.96-7.44-6.96,3.36-6.96,7.44,3.12,7.44,6.96,7.44"/>
      <path class="cls-1" d="M293.92,75.76c-2.4,2.4-5.76,3.84-9.36,3.84-7.44,0-13.2-5.76-13.2-12.96s6-12.96,13.2-12.96,6.96,1.44,9.36,3.84l-4.32,3.84c-1.44-1.44-3.12-2.16-5.28-2.16-4.08,0-7.2,3.36-7.2,7.44s3.12,7.44,7.2,7.44,4.08-.96,5.28-2.4l4.08,4.08h.24Z"/>
      <polygon class="cls-1" points="305.92 59.92 305.92 78.88 299.92 78.88 299.92 59.92 295.84 59.92 295.84 54.41 299.92 54.41 299.92 43.37 305.92 43.37 305.92 54.41 310 54.41 310 59.92 305.92 59.92"/>
    </g>
  </g>
</svg>